STARTFONT 2.1
FONT serifb10
SIZE 12 75 75
FONTBOUNDINGBOX 8 13 0 -3

STARTPROPERTIES 10
COPYRIGHT "Share and enjoy."
POINT_SIZE 120
WEIGHT 10
RESOLUTION_X 75
RESOLUTION_Y 75
X_HEIGHT 10
QUAD_WIDTH 8
DEFAULT_CHAR 0
FONT_DESCENT 3
FONT_ASCENT 10
ENDPROPERTIES

CHARS 125

STARTCHAR C002
ENCODING 2
SWIDTH 666 0
DWIDTH 8 0
BBX 8 13 0 -3
BITMAP
00
00
00
18
18
00
18
30
36
1C
00
00
00
ENDCHAR

STARTCHAR C003
ENCODING 3
SWIDTH 666 0
DWIDTH 8 0
BBX 8 13 0 -3
BITMAP
00
00
00
00
00
1E
36
30
3A
1E
04
0C
00
ENDCHAR

STARTCHAR C004
ENCODING 4
SWIDTH 666 0
DWIDTH 8 0
BBX 8 13 0 -3
BITMAP
00
00
1B
1B
00
00
00
00
00
00
00
00
00
ENDCHAR

STARTCHAR C005
ENCODING 5
SWIDTH 666 0
DWIDTH 8 0
BBX 8 13 0 -3
BITMAP
00
0C
06
03
00
00
00
00
00
00
00
00
00
ENDCHAR

STARTCHAR C006
ENCODING 6
SWIDTH 666 0
DWIDTH 8 0
BBX 8 13 0 -3
BITMAP
00
00
00
73
C6
FF
C6
C6
C6
FF
00
00
00
ENDCHAR

STARTCHAR C007
ENCODING 7
SWIDTH 666 0
DWIDTH 8 0
BBX 8 13 0 -3
BITMAP
00
00
00
08
10
18
18
00
00
00
00
00
00
ENDCHAR

STARTCHAR C010
ENCODING 8
SWIDTH 666 0
DWIDTH 8 0
BBX 8 13 0 -3
BITMAP
00
00
00
18
18
00
18
18
18
18
00
00
00
ENDCHAR

STARTCHAR C011
ENCODING 9
SWIDTH 666 0
DWIDTH 8 0
BBX 8 13 0 -3
BITMAP
00
00
00
00
00
00
00
00
00
00
00
00
00
ENDCHAR

STARTCHAR C012
ENCODING 10
SWIDTH 666 0
DWIDTH 8 0
BBX 8 13 0 -3
BITMAP
00
00
00
00
00
00
00
00
00
00
00
00
00
ENDCHAR

STARTCHAR C013
ENCODING 11
SWIDTH 666 0
DWIDTH 8 0
BBX 8 13 0 -3
BITMAP
00
06
0C
18
00
00
00
00
00
00
00
00
00
ENDCHAR

STARTCHAR C014
ENCODING 12
SWIDTH 666 0
DWIDTH 8 0
BBX 8 13 0 -3
BITMAP
00
00
00
00
00
00
00
00
00
00
00
00
00
ENDCHAR

STARTCHAR C015
ENCODING 13
SWIDTH 666 0
DWIDTH 8 0
BBX 8 13 0 -3
BITMAP
00
00
00
00
00
00
00
00
00
00
00
00
00
ENDCHAR

STARTCHAR C016
ENCODING 14
SWIDTH 666 0
DWIDTH 8 0
BBX 8 13 0 -3
BITMAP
00
00
1E
1E
00
00
00
00
00
00
00
00
00
ENDCHAR

STARTCHAR C017
ENCODING 15
SWIDTH 666 0
DWIDTH 8 0
BBX 8 13 0 -3
BITMAP
00
00
00
00
00
00
00
00
00
00
00
00
00
ENDCHAR

STARTCHAR C020
ENCODING 16
SWIDTH 666 0
DWIDTH 8 0
BBX 8 13 0 -3
BITMAP
18
3D
2F
06
00
00
00
00
00
00
00
00
00
ENDCHAR

STARTCHAR C021
ENCODING 17
SWIDTH 666 0
DWIDTH 8 0
BBX 8 13 0 -3
BITMAP
00
00
03
6F
D8
FF
DB
DB
DB
FF
00
00
00
ENDCHAR

STARTCHAR C022
ENCODING 18
SWIDTH 666 0
DWIDTH 8 0
BBX 8 13 0 -3
BITMAP
00
00
00
6F
DB
FF
DB
DB
DB
FF
00
00
00
ENDCHAR

STARTCHAR C023
ENCODING 19
SWIDTH 666 0
DWIDTH 8 0
BBX 8 13 0 -3
BITMAP
00
00
00
00
00
00
FF
00
00
00
00
00
00
ENDCHAR

STARTCHAR C024
ENCODING 20
SWIDTH 666 0
DWIDTH 8 0
BBX 8 13 0 -3
BITMAP
00
00
06
76
C0
FE
C6
C6
C6
FF
00
00
00
ENDCHAR

STARTCHAR C025
ENCODING 21
SWIDTH 666 0
DWIDTH 8 0
BBX 8 13 0 -3
BITMAP
00
00
00
7E
C6
F6
C6
C6
C6
FF
00
00
00
ENDCHAR

STARTCHAR C026
ENCODING 22
SWIDTH 666 0
DWIDTH 8 0
BBX 8 13 0 -3
BITMAP
00
00
00
00
00
00
7F
00
00
00
00
00
00
ENDCHAR

STARTCHAR C027
ENCODING 23
SWIDTH 666 0
DWIDTH 8 0
BBX 8 13 0 -3
BITMAP
00
22
3E
1C
00
00
00
00
00
00
00
00
00
ENDCHAR

STARTCHAR C030
ENCODING 24
SWIDTH 666 0
DWIDTH 8 0
BBX 8 13 0 -3
BITMAP
00
00
00
00
00
00
7E
00
00
00
00
00
00
ENDCHAR

STARTCHAR C031
ENCODING 25
SWIDTH 666 0
DWIDTH 8 0
BBX 8 13 0 -3
BITMAP
00
00
00
00
00
00
00
00
00
00
00
00
00
ENDCHAR

STARTCHAR C032
ENCODING 26
SWIDTH 666 0
DWIDTH 8 0
BBX 8 13 0 -3
BITMAP
00
00
00
00
00
00
00
00
00
00
00
00
00
ENDCHAR

STARTCHAR C033
ENCODING 27
SWIDTH 666 0
DWIDTH 8 0
BBX 8 13 0 -3
BITMAP
00
00
00
00
00
00
00
00
00
00
00
00
00
ENDCHAR

STARTCHAR C034
ENCODING 28
SWIDTH 666 0
DWIDTH 8 0
BBX 8 13 0 -3
BITMAP
00
00
00
00
00
00
00
00
00
00
00
00
00
ENDCHAR

STARTCHAR C035
ENCODING 29
SWIDTH 666 0
DWIDTH 8 0
BBX 8 13 0 -3
BITMAP
00
00
00
00
00
00
00
00
00
00
00
06
06
ENDCHAR

STARTCHAR C036
ENCODING 30
SWIDTH 666 0
DWIDTH 8 0
BBX 8 13 0 -3
BITMAP
18
3D
2F
06
00
00
00
00
00
00
00
00
00
ENDCHAR

STARTCHAR C037
ENCODING 31
SWIDTH 666 0
DWIDTH 8 0
BBX 8 13 0 -3
BITMAP
1C
36
1C
08
00
00
00
00
00
00
00
00
00
ENDCHAR

STARTCHAR C040
ENCODING 32
SWIDTH 666 0
DWIDTH 8 0
BBX 8 13 0 -3
BITMAP
00
00
00
00
00
00
00
00
00
00
00
00
00
ENDCHAR

STARTCHAR !
ENCODING 33
SWIDTH 666 0
DWIDTH 8 0
BBX 8 13 0 -3
BITMAP
00
00
00
18
18
18
18
00
18
18
00
00
00
ENDCHAR

STARTCHAR "
ENCODING 34
SWIDTH 666 0
DWIDTH 8 0
BBX 8 13 0 -3
BITMAP
00
00
00
36
36
36
00
00
00
00
00
00
00
ENDCHAR

STARTCHAR #
ENCODING 35
SWIDTH 666 0
DWIDTH 8 0
BBX 8 13 0 -3
BITMAP
00
00
00
12
12
7F
24
FE
48
48
00
00
00
ENDCHAR

STARTCHAR $
ENCODING 36
SWIDTH 666 0
DWIDTH 8 0
BBX 8 13 0 -3
BITMAP
00
00
08
3E
6A
78
3E
0E
6A
7C
08
00
00
ENDCHAR

STARTCHAR %
ENCODING 37
SWIDTH 666 0
DWIDTH 8 0
BBX 8 13 0 -3
BITMAP
00
00
00
3C
54
58
6B
0D
15
16
00
00
00
ENDCHAR

STARTCHAR &
ENCODING 38
SWIDTH 666 0
DWIDTH 8 0
BBX 8 13 0 -3
BITMAP
00
00
00
18
34
34
7B
DE
CC
7F
00
00
00
ENDCHAR

STARTCHAR '
ENCODING 39
SWIDTH 666 0
DWIDTH 8 0
BBX 8 13 0 -3
BITMAP
00
00
00
18
18
08
10
00
00
00
00
00
00
ENDCHAR

STARTCHAR (
ENCODING 40
SWIDTH 666 0
DWIDTH 8 0
BBX 8 13 0 -3
BITMAP
00
00
00
0C
18
18
30
30
30
30
18
18
0C
ENDCHAR

STARTCHAR )
ENCODING 41
SWIDTH 666 0
DWIDTH 8 0
BBX 8 13 0 -3
BITMAP
00
00
00
30
18
18
0C
0C
0C
0C
18
18
30
ENDCHAR

STARTCHAR *
ENCODING 42
SWIDTH 666 0
DWIDTH 8 0
BBX 8 13 0 -3
BITMAP
00
00
08
2A
1C
2A
08
00
00
00
00
00
00
ENDCHAR

STARTCHAR +
ENCODING 43
SWIDTH 666 0
DWIDTH 8 0
BBX 8 13 0 -3
BITMAP
00
00
00
00
00
18
7E
7E
18
18
00
00
00
ENDCHAR

STARTCHAR ,
ENCODING 44
SWIDTH 666 0
DWIDTH 8 0
BBX 8 13 0 -3
BITMAP
00
00
00
00
00
00
00
00
18
18
08
08
10
ENDCHAR

STARTCHAR -
ENCODING 45
SWIDTH 666 0
DWIDTH 8 0
BBX 8 13 0 -3
BITMAP
00
00
00
00
00
00
3E
00
00
00
00
00
00
ENDCHAR

STARTCHAR .
ENCODING 46
SWIDTH 666 0
DWIDTH 8 0
BBX 8 13 0 -3
BITMAP
00
00
00
00
00
00
00
00
18
18
00
00
00
ENDCHAR

STARTCHAR /
ENCODING 47
SWIDTH 666 0
DWIDTH 8 0
BBX 8 13 0 -3
BITMAP
00
00
00
06
06
0C
1C
18
30
30
00
00
00
ENDCHAR

STARTCHAR 0
ENCODING 48
SWIDTH 666 0
DWIDTH 8 0
BBX 8 13 0 -3
BITMAP
00
00
00
1C
36
36
36
36
36
1C
00
00
00
ENDCHAR

STARTCHAR 1
ENCODING 49
SWIDTH 666 0
DWIDTH 8 0
BBX 8 13 0 -3
BITMAP
00
00
00
0C
1C
0C
0C
0C
0C
1E
00
00
00
ENDCHAR

STARTCHAR 2
ENCODING 50
SWIDTH 666 0
DWIDTH 8 0
BBX 8 13 0 -3
BITMAP
00
00
00
1C
2E
06
0E
18
32
3E
00
00
00
ENDCHAR

STARTCHAR 3
ENCODING 51
SWIDTH 666 0
DWIDTH 8 0
BBX 8 13 0 -3
BITMAP
00
00
00
1C
26
06
0E
06
26
3C
00
00
00
ENDCHAR

STARTCHAR 4
ENCODING 52
SWIDTH 666 0
DWIDTH 8 0
BBX 8 13 0 -3
BITMAP
00
00
00
06
0E
0E
36
3F
06
06
00
00
00
ENDCHAR

STARTCHAR 5
ENCODING 53
SWIDTH 666 0
DWIDTH 8 0
BBX 8 13 0 -3
BITMAP
00
00
00
1E
1C
30
3E
06
26
3C
00
00
00
ENDCHAR

STARTCHAR 6
ENCODING 54
SWIDTH 666 0
DWIDTH 8 0
BBX 8 13 0 -3
BITMAP
00
00
00
0E
10
3C
36
36
36
1C
00
00
00
ENDCHAR

STARTCHAR 7
ENCODING 55
SWIDTH 666 0
DWIDTH 8 0
BBX 8 13 0 -3
BITMAP
00
00
00
1E
3E
26
0C
08
18
18
00
00
00
ENDCHAR

STARTCHAR 8
ENCODING 56
SWIDTH 666 0
DWIDTH 8 0
BBX 8 13 0 -3
BITMAP
00
00
00
1C
36
36
3E
36
36
1C
00
00
00
ENDCHAR

STARTCHAR 9
ENCODING 57
SWIDTH 666 0
DWIDTH 8 0
BBX 8 13 0 -3
BITMAP
00
00
00
1C
36
36
3E
06
2C
38
00
00
00
ENDCHAR

STARTCHAR :
ENCODING 58
SWIDTH 666 0
DWIDTH 8 0
BBX 8 13 0 -3
BITMAP
00
00
00
00
00
18
18
00
18
18
00
00
00
ENDCHAR

STARTCHAR ;
ENCODING 59
SWIDTH 666 0
DWIDTH 8 0
BBX 8 13 0 -3
BITMAP
00
00
00
00
00
18
18
00
18
18
08
08
10
ENDCHAR

STARTCHAR <
ENCODING 60
SWIDTH 666 0
DWIDTH 8 0
BBX 8 13 0 -3
BITMAP
00
00
00
06
0C
18
30
18
0C
06
00
00
00
ENDCHAR

STARTCHAR =
ENCODING 61
SWIDTH 666 0
DWIDTH 8 0
BBX 8 13 0 -3
BITMAP
00
00
00
00
00
3E
3E
3E
3E
00
00
00
00
ENDCHAR

STARTCHAR >
ENCODING 62
SWIDTH 666 0
DWIDTH 8 0
BBX 8 13 0 -3
BITMAP
00
00
00
30
18
0C
06
0C
18
30
00
00
00
ENDCHAR

STARTCHAR ?
ENCODING 63
SWIDTH 666 0
DWIDTH 8 0
BBX 8 13 0 -3
BITMAP
00
00
00
1C
36
06
0C
00
0C
0C
00
00
00
ENDCHAR

STARTCHAR @
ENCODING 64
SWIDTH 666 0
DWIDTH 8 0
BBX 8 13 0 -3
BITMAP
00
00
00
3C
42
99
A5
A5
9E
40
3F
00
00
ENDCHAR

STARTCHAR A
ENCODING 65
SWIDTH 666 0
DWIDTH 8 0
BBX 8 13 0 -3
BITMAP
00
00
00
18
18
3C
2C
7E
46
EF
00
00
00
ENDCHAR

STARTCHAR B
ENCODING 66
SWIDTH 666 0
DWIDTH 8 0
BBX 8 13 0 -3
BITMAP
00
00
00
FC
66
66
7E
66
66
FC
00
00
00
ENDCHAR

STARTCHAR C
ENCODING 67
SWIDTH 666 0
DWIDTH 8 0
BBX 8 13 0 -3
BITMAP
00
00
00
3A
66
C2
C0
C0
62
3C
00
00
00
ENDCHAR

STARTCHAR D
ENCODING 68
SWIDTH 666 0
DWIDTH 8 0
BBX 8 13 0 -3
BITMAP
00
00
00
FC
66
63
63
63
66
FC
00
00
00
ENDCHAR

STARTCHAR E
ENCODING 69
SWIDTH 666 0
DWIDTH 8 0
BBX 8 13 0 -3
BITMAP
00
00
00
FE
62
68
78
62
62
FE
00
00
00
ENDCHAR

STARTCHAR F
ENCODING 70
SWIDTH 666 0
DWIDTH 8 0
BBX 8 13 0 -3
BITMAP
00
00
00
FE
62
68
78
60
60
F0
00
00
00
ENDCHAR

STARTCHAR G
ENCODING 71
SWIDTH 666 0
DWIDTH 8 0
BBX 8 13 0 -3
BITMAP
00
00
00
3A
66
C2
CF
C6
66
3C
00
00
00
ENDCHAR

STARTCHAR H
ENCODING 72
SWIDTH 666 0
DWIDTH 8 0
BBX 8 13 0 -3
BITMAP
00
00
00
EF
C6
C6
FE
C6
C6
EF
00
00
00
ENDCHAR

STARTCHAR I
ENCODING 73
SWIDTH 666 0
DWIDTH 8 0
BBX 8 13 0 -3
BITMAP
00
00
00
3C
18
18
18
18
18
3C
00
00
00
ENDCHAR

STARTCHAR J
ENCODING 74
SWIDTH 666 0
DWIDTH 8 0
BBX 8 13 0 -3
BITMAP
00
00
00
1E
0C
0C
0C
0C
6C
78
00
00
00
ENDCHAR

STARTCHAR K
ENCODING 75
SWIDTH 666 0
DWIDTH 8 0
BBX 8 13 0 -3
BITMAP
00
00
00
F6
64
68
78
6C
66
F7
00
00
00
ENDCHAR

STARTCHAR L
ENCODING 76
SWIDTH 666 0
DWIDTH 8 0
BBX 8 13 0 -3
BITMAP
00
00
00
F0
60
60
60
62
62
FE
00
00
00
ENDCHAR

STARTCHAR M
ENCODING 77
SWIDTH 666 0
DWIDTH 8 0
BBX 8 13 0 -3
BITMAP
00
00
00
E3
E6
F6
BA
92
92
D7
00
00
00
ENDCHAR

STARTCHAR N
ENCODING 78
SWIDTH 666 0
DWIDTH 8 0
BBX 8 13 0 -3
BITMAP
00
00
00
E7
E2
B2
BA
9A
8E
CE
00
00
00
ENDCHAR

STARTCHAR O
ENCODING 79
SWIDTH 666 0
DWIDTH 8 0
BBX 8 13 0 -3
BITMAP
00
00
00
3C
66
C3
C3
C3
66
3C
00
00
00
ENDCHAR

STARTCHAR P
ENCODING 80
SWIDTH 666 0
DWIDTH 8 0
BBX 8 13 0 -3
BITMAP
00
00
00
FC
66
66
7E
60
60
F0
00
00
00
ENDCHAR

STARTCHAR Q
ENCODING 81
SWIDTH 666 0
DWIDTH 8 0
BBX 8 13 0 -3
BITMAP
00
00
00
3C
66
C3
C3
C3
66
3C
18
0E
00
ENDCHAR

STARTCHAR R
ENCODING 82
SWIDTH 666 0
DWIDTH 8 0
BBX 8 13 0 -3
BITMAP
00
00
00
FC
66
66
7C
6C
66
F7
00
00
00
ENDCHAR

STARTCHAR S
ENCODING 83
SWIDTH 666 0
DWIDTH 8 0
BBX 8 13 0 -3
BITMAP
00
00
00
3E
62
70
3E
46
66
5C
00
00
00
ENDCHAR

STARTCHAR T
ENCODING 84
SWIDTH 666 0
DWIDTH 8 0
BBX 8 13 0 -3
BITMAP
00
00
00
FF
99
18
18
18
18
3C
00
00
00
ENDCHAR

STARTCHAR U
ENCODING 85
SWIDTH 666 0
DWIDTH 8 0
BBX 8 13 0 -3
BITMAP
00
00
00
E7
C2
C2
C2
C2
E6
7C
00
00
00
ENDCHAR

STARTCHAR V
ENCODING 86
SWIDTH 666 0
DWIDTH 8 0
BBX 8 13 0 -3
BITMAP
00
00
00
E7
C2
64
6C
38
38
10
00
00
00
ENDCHAR

STARTCHAR W
ENCODING 87
SWIDTH 666 0
DWIDTH 8 0
BBX 8 13 0 -3
BITMAP
00
00
00
DF
D9
5E
5E
64
64
64
00
00
00
ENDCHAR

STARTCHAR X
ENCODING 88
SWIDTH 666 0
DWIDTH 8 0
BBX 8 13 0 -3
BITMAP
00
00
00
F7
62
34
18
2C
46
EF
00
00
00
ENDCHAR

STARTCHAR Y
ENCODING 89
SWIDTH 666 0
DWIDTH 8 0
BBX 8 13 0 -3
BITMAP
00
00
00
F7
62
34
3C
18
18
3C
00
00
00
ENDCHAR

STARTCHAR Z
ENCODING 90
SWIDTH 666 0
DWIDTH 8 0
BBX 8 13 0 -3
BITMAP
00
00
00
7E
46
0C
18
30
62
7E
00
00
00
ENDCHAR

STARTCHAR [
ENCODING 91
SWIDTH 666 0
DWIDTH 8 0
BBX 8 13 0 -3
BITMAP
00
00
00
3C
30
30
30
30
30
30
30
30
3C
ENDCHAR

STARTCHAR \
ENCODING 92
SWIDTH 666 0
DWIDTH 8 0
BBX 8 13 0 -3
BITMAP
00
00
00
30
30
18
1C
0C
06
06
00
00
00
ENDCHAR

STARTCHAR ]
ENCODING 93
SWIDTH 666 0
DWIDTH 8 0
BBX 8 13 0 -3
BITMAP
00
00
00
3C
0C
0C
0C
0C
0C
0C
0C
0C
3C
ENDCHAR

STARTCHAR ^
ENCODING 94
SWIDTH 666 0
DWIDTH 8 0
BBX 8 13 0 -3
BITMAP
00
00
00
00
18
3C
5A
18
18
00
00
00
00
ENDCHAR

STARTCHAR _
ENCODING 95
SWIDTH 666 0
DWIDTH 8 0
BBX 8 13 0 -3
BITMAP
00
00
00
00
10
20
7E
20
10
00
00
00
00
ENDCHAR

STARTCHAR `
ENCODING 96
SWIDTH 666 0
DWIDTH 8 0
BBX 8 13 0 -3
BITMAP
00
00
00
08
10
18
18
00
00
00
00
00
00
ENDCHAR

STARTCHAR a
ENCODING 97
SWIDTH 666 0
DWIDTH 8 0
BBX 8 13 0 -3
BITMAP
00
00
00
00
00
38
3C
6C
6C
3E
00
00
00
ENDCHAR

STARTCHAR b
ENCODING 98
SWIDTH 666 0
DWIDTH 8 0
BBX 8 13 0 -3
BITMAP
00
00
00
70
30
3C
36
36
36
2C
00
00
00
ENDCHAR

STARTCHAR c
ENCODING 99
SWIDTH 666 0
DWIDTH 8 0
BBX 8 13 0 -3
BITMAP
00
00
00
00
00
3C
64
60
64
38
00
00
00
ENDCHAR

STARTCHAR d
ENCODING 100
SWIDTH 666 0
DWIDTH 8 0
BBX 8 13 0 -3
BITMAP
00
00
00
1C
0C
3C
6C
6C
6C
3E
00
00
00
ENDCHAR

STARTCHAR e
ENCODING 101
SWIDTH 666 0
DWIDTH 8 0
BBX 8 13 0 -3
BITMAP
00
00
00
00
00
38
7C
60
64
38
00
00
00
ENDCHAR

STARTCHAR f
ENCODING 102
SWIDTH 666 0
DWIDTH 8 0
BBX 8 13 0 -3
BITMAP
00
00
00
1C
30
78
30
30
30
78
00
00
00
ENDCHAR

STARTCHAR g
ENCODING 103
SWIDTH 666 0
DWIDTH 8 0
BBX 8 13 0 -3
BITMAP
00
00
00
00
00
3E
6C
78
20
7C
FE
C6
7C
ENDCHAR

STARTCHAR h
ENCODING 104
SWIDTH 666 0
DWIDTH 8 0
BBX 8 13 0 -3
BITMAP
00
00
00
E0
60
78
6C
6C
6C
EE
00
00
00
ENDCHAR

STARTCHAR i
ENCODING 105
SWIDTH 666 0
DWIDTH 8 0
BBX 8 13 0 -3
BITMAP
00
00
18
18
00
38
18
18
18
3C
00
00
00
ENDCHAR

STARTCHAR j
ENCODING 106
SWIDTH 666 0
DWIDTH 8 0
BBX 8 13 0 -3
BITMAP
00
00
0C
0C
00
1C
0C
0C
0C
0C
0C
2C
38
ENDCHAR

STARTCHAR k
ENCODING 107
SWIDTH 666 0
DWIDTH 8 0
BBX 8 13 0 -3
BITMAP
00
00
00
E0
60
6C
78
78
6C
EE
00
00
00
ENDCHAR

STARTCHAR l
ENCODING 108
SWIDTH 666 0
DWIDTH 8 0
BBX 8 13 0 -3
BITMAP
00
00
00
38
18
18
18
18
18
3C
00
00
00
ENDCHAR

STARTCHAR m
ENCODING 109
SWIDTH 666 0
DWIDTH 8 0
BBX 8 13 0 -3
BITMAP
00
00
00
00
00
FC
DE
DE
DE
DF
00
00
00
ENDCHAR

STARTCHAR n
ENCODING 110
SWIDTH 666 0
DWIDTH 8 0
BBX 8 13 0 -3
BITMAP
00
00
00
00
00
F8
6C
6C
6C
EE
00
00
00
ENDCHAR

STARTCHAR o
ENCODING 111
SWIDTH 666 0
DWIDTH 8 0
BBX 8 13 0 -3
BITMAP
00
00
00
00
00
38
6C
6C
6C
38
00
00
00
ENDCHAR

STARTCHAR p
ENCODING 112
SWIDTH 666 0
DWIDTH 8 0
BBX 8 13 0 -3
BITMAP
00
00
00
00
00
7C
36
36
36
3C
30
30
78
ENDCHAR

STARTCHAR q
ENCODING 113
SWIDTH 666 0
DWIDTH 8 0
BBX 8 13 0 -3
BITMAP
00
00
00
00
00
1E
36
36
36
1E
06
06
0F
ENDCHAR

STARTCHAR r
ENCODING 114
SWIDTH 666 0
DWIDTH 8 0
BBX 8 13 0 -3
BITMAP
00
00
00
00
00
7E
36
30
30
78
00
00
00
ENDCHAR

STARTCHAR s
ENCODING 115
SWIDTH 666 0
DWIDTH 8 0
BBX 8 13 0 -3
BITMAP
00
00
00
00
00
1C
38
1C
0C
38
00
00
00
ENDCHAR

STARTCHAR t
ENCODING 116
SWIDTH 666 0
DWIDTH 8 0
BBX 8 13 0 -3
BITMAP
00
00
00
10
30
78
30
30
34
1C
00
00
00
ENDCHAR

STARTCHAR u
ENCODING 117
SWIDTH 666 0
DWIDTH 8 0
BBX 8 13 0 -3
BITMAP
00
00
00
00
00
EC
6C
6C
6C
7E
00
00
00
ENDCHAR

STARTCHAR v
ENCODING 118
SWIDTH 666 0
DWIDTH 8 0
BBX 8 13 0 -3
BITMAP
00
00
00
00
00
F7
76
34
18
18
00
00
00
ENDCHAR

STARTCHAR w
ENCODING 119
SWIDTH 666 0
DWIDTH 8 0
BBX 8 13 0 -3
BITMAP
00
00
00
00
00
FB
FA
7E
3C
3C
00
00
00
ENDCHAR

STARTCHAR x
ENCODING 120
SWIDTH 666 0
DWIDTH 8 0
BBX 8 13 0 -3
BITMAP
00
00
00
00
00
76
3C
1C
3C
66
00
00
00
ENDCHAR

STARTCHAR y
ENCODING 121
SWIDTH 666 0
DWIDTH 8 0
BBX 8 13 0 -3
BITMAP
00
00
00
00
00
F6
6C
38
38
10
D0
E0
00
ENDCHAR

STARTCHAR z
ENCODING 122
SWIDTH 666 0
DWIDTH 8 0
BBX 8 13 0 -3
BITMAP
00
00
00
00
00
7C
5C
30
64
7C
00
00
00
ENDCHAR

STARTCHAR {
ENCODING 123
SWIDTH 666 0
DWIDTH 8 0
BBX 8 13 0 -3
BITMAP
00
00
00
0E
18
18
38
60
30
18
18
18
0E
ENDCHAR

STARTCHAR |
ENCODING 124
SWIDTH 666 0
DWIDTH 8 0
BBX 8 13 0 -3
BITMAP
00
00
00
18
18
18
18
18
18
18
18
18
18
ENDCHAR

STARTCHAR }
ENCODING 125
SWIDTH 666 0
DWIDTH 8 0
BBX 8 13 0 -3
BITMAP
00
00
00
70
18
18
1C
06
0C
18
18
18
70
ENDCHAR

STARTCHAR ~
ENCODING 126
SWIDTH 666 0
DWIDTH 8 0
BBX 8 13 0 -3
BITMAP
00
00
00
00
00
33
7F
00
00
00
00
00
00
ENDCHAR
ENDFONT
